<?xml version="1.0" encoding="UTF-8" standalone="no"?>
<!-- Created with Inkscape (http://www.inkscape.org/) -->

<svg
   width="120"
   height="120"
   viewBox="0 0 120 120"
   version="1.1"
   id="svg1"
   xml:space="preserve"
   xmlns="http://www.w3.org/2000/svg"
   xmlns:svg="http://www.w3.org/2000/svg"><defs
     id="defs1" /><g
     id="layer1"><path
       style="fill:#dddddd"
       d="m 81.310845,112.5985 c -0.3313,-0.051 -0.873429,-0.051 -1.204729,0 -0.331301,0.051 -0.06024,0.0927 0.602365,0.0927 0.662601,0 0.933665,-0.0417 0.602364,-0.0927 z m -2.53267,-0.21506 c -0.158121,-0.0643 -0.347045,-0.0564 -0.41983,0.0176 -0.07279,0.0739 0.05659,0.12648 0.287492,0.11682 0.255171,-0.0107 0.307074,-0.0634 0.132338,-0.13438 z m -4.85999,-1.93395 c 0,-0.0462 -0.172496,-0.22136 -0.383324,-0.38926 -0.347412,-0.27668 -0.35516,-0.26882 -0.0827,0.084 0.28615,0.37052 0.466024,0.48835 0.466024,0.30528 z m -1.314251,-1.33461 c 0,-0.0462 -0.172496,-0.22136 -0.383323,-0.38926 -0.347413,-0.27669 -0.35516,-0.26882 -0.0827,0.084 0.28615,0.37052 0.466024,0.48835 0.466024,0.30528 z m 11.609215,-2.9189 c -0.282946,-0.30584 -0.563732,-0.55608 -0.623968,-0.55608 -0.06024,0 0.12198,0.25024 0.404927,0.55608 0.282946,0.30585 0.563732,0.55609 0.623968,0.55609 0.06024,0 -0.12198,-0.25024 -0.404927,-0.55609 z m -12.73901,0.11122 c 0,-0.30585 -0.04972,-0.43097 -0.110481,-0.27804 -0.06076,0.15292 -0.06076,0.40316 0,0.55609 0.06077,0.15292 0.110481,0.0278 0.110481,-0.27805 z m -44.59518,0.0751 c -0.15059,-0.0617 -0.39701,-0.0617 -0.54761,0 -0.15059,0.0617 -0.0274,0.1122 0.27381,0.1122 0.30118,0 0.42439,-0.0505 0.2738,-0.1122 z m -2.6285,0 c -0.15059,-0.0617 -0.39702,-0.0617 -0.54761,0 -0.15059,0.0617 -0.0274,0.1122 0.27381,0.1122 0.30118,0 0.42439,-0.0505 0.2738,-0.1122 z m -1.32794,-0.22707 c -0.15812,-0.0643 -0.34705,-0.0563 -0.41983,0.0176 -0.0728,0.0739 0.0566,0.12649 0.28749,0.11683 0.25517,-0.0107 0.30707,-0.0634 0.13234,-0.13439 z m 71.366553,-0.82177 c 0,-0.0462 -0.172495,-0.22136 -0.383323,-0.38926 -0.347412,-0.27668 -0.35516,-0.26881 -0.0827,0.084 0.286149,0.37052 0.466023,0.48835 0.466023,0.30528 z m -65.544313,-0.58332 c 0,-0.42819 -0.0451,-0.60336 -0.10018,-0.38927 -0.0551,0.2141 -0.0551,0.56443 0,0.77853 0.0551,0.21409 0.10018,0.0389 0.10018,-0.38926 z m 42.494106,-0.22244 c 0,-0.42819 -0.04508,-0.60335 -0.100173,-0.38926 -0.05509,0.21409 -0.05509,0.56443 0,0.77852 0.05509,0.2141 0.100173,0.0389 0.100173,-0.38926 z m -31.231086,0.51536 c -0.15812,-0.0643 -0.34705,-0.0564 -0.41983,0.0176 -0.0728,0.0739 0.0566,0.12648 0.28749,0.11683 0.25517,-0.0107 0.30707,-0.0634 0.13234,-0.13439 z m -2.84755,0 c -0.15812,-0.0643 -0.34704,-0.0564 -0.41983,0.0176 -0.0728,0.0739 0.0566,0.12648 0.2875,0.11683 0.25517,-0.0107 0.30707,-0.0634 0.13233,-0.13439 z m 45.721377,-2.64703 c -0.01051,-0.25912 -0.06241,-0.31183 -0.132338,-0.13439 -0.06327,0.16057 -0.05549,0.35242 0.01729,0.42634 0.07279,0.0739 0.124556,-0.0575 0.115045,-0.29195 z M 71.010982,101.8585 c 0,-0.55053 -0.04272,-0.77574 -0.09493,-0.50048 -0.05221,0.27526 -0.05221,0.72569 0,1.00096 0.05221,0.27526 0.09493,0.05 0.09493,-0.50048 z m -52.089583,-0.12975 c -0.0105,-0.25913 -0.0624,-0.31184 -0.13234,-0.13439 -0.0633,0.16057 -0.0555,0.35242 0.0173,0.42633 0.0728,0.0739 0.12456,-0.0575 0.11505,-0.29194 z m 73.159963,-0.66731 c -0.01051,-0.25912 -0.06241,-0.31183 -0.132338,-0.13439 -0.06328,0.16057 -0.05549,0.35242 0.01729,0.42634 0.07278,0.0739 0.124556,-0.0575 0.115045,-0.29195 z m -11.43852,-0.98242 c 0,-0.672868 -0.04106,-0.948131 -0.09125,-0.611698 -0.05019,0.336433 -0.05019,0.886958 0,1.223388 0.05019,0.33644 0.09125,0.0612 0.09125,-0.61169 z m -61.940483,0.53755 c -0.0105,-0.25912 -0.0624,-0.31183 -0.13234,-0.13439 -0.0633,0.16057 -0.0555,0.35242 0.0173,0.42634 0.0728,0.0739 0.12456,-0.0575 0.11505,-0.29195 z m -0.23633,-1.427292 c 0,-0.305848 -0.0497,-0.430968 -0.11049,-0.278044 -0.0608,0.152924 -0.0608,0.403164 0,0.556088 0.0608,0.152924 0.11049,0.0278 0.11049,-0.278044 z M 82.637155,98.63319 c -0.0045,-0.367018 -0.05356,-0.490233 -0.109092,-0.273811 -0.05554,0.216423 -0.05188,0.51671 0.0081,0.667306 0.06,0.150596 0.10544,-0.02648 0.100976,-0.393495 z m -11.85343,-0.88974 c -0.0012,-0.734036 -0.04212,-1.007507 -0.09087,-0.607713 -0.04875,0.399793 -0.04774,1.000368 0.0022,1.33461 0.04998,0.334242 0.08987,0.0071 0.08864,-0.726897 z M 18.230749,97.187362 c 0,-0.428188 -0.0451,-0.603356 -0.10017,-0.389262 -0.0551,0.214094 -0.0551,0.564429 0,0.778523 0.0551,0.214094 0.10017,0.03893 0.10017,-0.389261 z m 62.634124,-1.223393 c -0.0016,-0.611697 -0.04418,-0.835536 -0.09453,-0.497421 -0.05035,0.338115 -0.049,0.838594 0.003,1.112176 0.05199,0.273581 0.09319,-0.0031 0.09154,-0.614755 z m -54.057964,0.648769 c -0.0105,-0.259125 -0.0624,-0.311832 -0.13234,-0.134388 -0.0633,0.16057 -0.0555,0.35242 0.0173,0.426334 0.0728,0.07391 0.12455,-0.05746 0.11504,-0.291946 z m -8.81803,-3.206773 c 0,-0.917545 -0.0387,-1.292905 -0.0859,-0.834132 -0.0473,0.458772 -0.0473,1.209491 0,1.668263 0.0473,0.458773 0.0859,0.08341 0.0859,-0.834131 z m 74.07519,0.88974 c 0,-0.305848 -0.04972,-0.430968 -0.110482,-0.278044 -0.06077,0.152924 -0.06077,0.403164 0,0.556088 0.06076,0.152924 0.110482,0.0278 0.110482,-0.278044 z m -9.658493,-0.778523 c -0.0024,-0.489357 -0.04729,-0.663358 -0.09968,-0.386668 -0.05239,0.27669 -0.0504,0.677073 0.0044,0.889741 0.05482,0.212667 0.09769,-0.01372 0.09526,-0.503073 z M 70.557468,91.960136 c -7.96e-4,-0.978714 -0.0393,-1.351428 -0.08558,-0.828252 -0.04627,0.523176 -0.04562,1.323943 0.0014,1.779481 0.04707,0.455539 0.08492,0.02749 0.08413,-0.951229 z m 10.523457,-0.111217 c 0,-0.672867 -0.04106,-0.94813 -0.09125,-0.611697 -0.05019,0.336433 -0.05019,0.88696 0,1.223393 0.05019,0.336433 0.09125,0.06117 0.09125,-0.611696 z m 11.219478,-0.574624 c -0.01051,-0.259125 -0.06241,-0.311832 -0.132337,-0.134388 -0.06328,0.16057 -0.05549,0.35242 0.01729,0.426334 0.07279,0.07391 0.124556,-0.05746 0.115045,-0.291946 z m -73.923394,-0.02748 c 0.11887,-0.317014 0.0937,-0.342564 -0.12262,-0.124518 -0.1497,0.150885 -0.217,0.33037 -0.14956,0.398855 0.0674,0.06848 0.18992,-0.05497 0.27218,-0.274337 z m 62.922958,-3.401729 c 0,-0.672866 -0.04106,-0.948129 -0.09125,-0.611696 -0.05019,0.336433 -0.05019,0.88696 0,1.223393 0.05019,0.336433 0.09125,0.06117 0.09125,-0.611697 z m 11.43852,-0.797059 c -0.01051,-0.259124 -0.06241,-0.311831 -0.132338,-0.134388 -0.06327,0.160571 -0.05549,0.352421 0.01729,0.426334 0.07279,0.07391 0.124556,-0.05746 0.115045,-0.291946 z M 81.550062,85.175865 c 0,-0.305848 -0.04972,-0.430968 -0.110481,-0.278044 -0.06077,0.152924 -0.06077,0.403164 0,0.556088 0.06076,0.152924 0.110481,0.0278 0.110481,-0.278044 z M 81.786397,83.7115 c -0.01051,-0.259124 -0.06241,-0.311831 -0.132338,-0.134388 -0.06328,0.160571 -0.05549,0.352421 0.01729,0.426334 0.07279,0.07391 0.124556,-0.05746 0.115045,-0.291946 z M 70.594289,80.481748 c 0.02105,-1.052523 0.100995,-2.523113 0.177661,-3.267978 l 0.139393,-1.354299 -1.289362,0.121033 c -0.709149,0.06657 -2.225766,0.419116 -3.370259,0.78344 -2.227082,0.708942 -5.684693,1.50723 -6.553001,1.512947 -1.617042,0.01065 1.435354,0.733453 7.093017,1.679626 1.802922,0.301515 3.349713,0.54821 3.437314,0.54821 0.0876,0 0.197006,0.425407 0.243122,0.94535 0.04612,0.519942 0.101068,0.08419 0.122115,-0.968329 z m 11.789786,0.690669 0.131349,-0.666921 3.797145,0.145471 c 2.858672,0.109516 3.8773,0.07792 4.121455,-0.127853 0.178371,-0.150328 0.590715,-0.991705 0.91632,-1.869727 0.970248,-2.616356 0.794719,-2.482062 2.23588,-1.710624 2.470329,1.32234 3.030831,0.853324 2.799799,-2.342811 l -0.148107,-2.048946 1.0317,-0.157109 c 0.567435,-0.08641 1.275539,-0.251254 1.573564,-0.366318 0.496282,-0.191609 0.530618,-0.29252 0.408184,-1.19961 -0.07352,-0.544721 -0.231474,-1.167758 -0.351002,-1.384526 -0.119528,-0.216769 -0.442058,-0.988968 -0.716733,-1.715998 -0.440811,-1.166772 -0.589363,-1.345884 -1.266055,-1.526505 -1.209863,-0.322932 -4.156249,-0.01917 -6.058628,0.624631 -5.616204,1.900619 -8.246469,5.528494 -8.522662,11.755149 -0.05345,1.205073 -0.156555,2.431247 -0.229116,2.72483 -0.07256,0.293584 -0.06949,0.533788 0.0068,0.533788 0.07631,0 0.19785,-0.300114 0.270093,-0.666921 z M 57.106726,78.577932 c -0.150591,-0.06171 -0.397013,-0.06171 -0.547604,0 -0.150591,0.06171 -0.02738,0.112193 0.273802,0.112193 0.301182,0 0.424394,-0.05049 0.273802,-0.112193 z m -5.914128,0 c -0.150592,-0.06171 -0.397014,-0.06171 -0.547605,0 -0.150591,0.06171 -0.02738,0.112193 0.273802,0.112193 0.301183,0 0.424394,-0.05049 0.273803,-0.112193 z M 11.473979,73.034614 c -0.0105,-0.259124 -0.0624,-0.311831 -0.13234,-0.134388 -0.0633,0.160571 -0.0555,0.352421 0.0173,0.426334 0.0728,0.07391 0.12456,-0.05746 0.11505,-0.291946 z m 0.21904,-2.669221 c -0.0105,-0.259124 -0.0624,-0.311832 -0.13234,-0.134388 -0.0633,0.16057 -0.0555,0.352421 0.0173,0.426334 0.0728,0.07391 0.12456,-0.05746 0.11505,-0.291946 z m 83.581741,-9.52367 c 2.824181,-0.907007 3.5239,-1.835005 5.59468,-7.419906 0.90729,-2.44699 1.51375,-2.933425 3.9708,-3.184958 1.78864,-0.183107 2.21826,-0.41516 1.99083,-1.075313 -0.44141,-1.281289 -2.25122,-2.123978 -4.54174,-2.114748 -2.761283,0.01113 -4.865982,1.105541 -5.834808,3.034016 -0.371072,0.73863 -0.399659,0.985984 -0.188899,1.634485 0.505471,1.555321 -0.469543,3.324128 -1.966327,3.567182 -1.219466,0.198021 -1.479202,0.408196 -1.091348,0.883103 0.381059,0.466586 1.543756,0.983455 2.212285,0.983455 0.268458,0 0.866763,-0.266475 1.329566,-0.592166 0.653512,-0.4599 0.900051,-0.532669 1.103774,-0.32579 0.203722,0.206879 0.18914,0.398761 -0.06528,0.859073 -0.789311,1.42804 -3.131804,1.935313 -4.62099,1.000688 l -0.762192,-0.478358 -1.244601,0.46558 c -1.113703,0.416614 -1.349768,0.435679 -2.24456,0.181271 -0.993478,-0.282465 -2.293337,-1.281509 -2.293337,-1.76261 0,-0.496369 0.72099,-0.517003 1.671918,-0.04785 1.093661,0.539573 1.647539,0.592118 2.339995,0.221991 1.037864,-0.554751 1.066941,-1.202282 0.06258,-1.393619 -1.681695,-0.320376 -2.594827,-1.934773 -2.080454,-3.678194 0.207142,-0.702088 0.199146,-1.024148 -0.03998,-1.610399 -0.444695,-1.090221 -1.674146,-2.363019 -2.925847,-3.029004 -0.928061,-0.493789 -1.395152,-0.590819 -2.861442,-0.594417 -1.43831,-0.0035 -1.911567,0.08839 -2.640889,0.512954 -0.488705,0.28449 -1.014825,0.722578 -1.169156,0.97353 -0.409385,0.665684 0.02885,0.998755 1.662454,1.26352 2.334687,0.378392 2.439508,0.50991 4.009715,5.030925 0.50988,1.468072 1.158026,3.133451 1.440323,3.700843 0.665356,1.337304 2.091933,2.563668 3.463277,2.977222 1.320164,0.39812 4.504165,0.407858 5.719658,0.01749 z m 16.47873,-6.293616 c -0.21312,-0.0564 -0.50883,-0.05269 -0.65713,0.0082 -0.14829,0.06093 0.0261,0.107073 0.3875,0.10254 0.36141,-0.0045 0.48275,-0.05439 0.26963,-0.110782 z m 1.13684,-1.087784 c -0.0105,-0.259124 -0.0624,-0.311831 -0.13233,-0.134388 -0.0633,0.160571 -0.0555,0.352421 0.0173,0.426334 0.0728,0.07391 0.12456,-0.05746 0.11504,-0.291946 z m 1.8107,-2.691416 c -0.15812,-0.06425 -0.34704,-0.05635 -0.41983,0.01756 -0.0728,0.07391 0.0566,0.126485 0.28749,0.116827 0.25518,-0.01067 0.30708,-0.06338 0.13234,-0.134387 z m 0.50654,-2.962143 c -0.21806,-0.244679 -0.44575,-0.444871 -0.50598,-0.444871 -0.0602,0 0.0689,0.200192 0.28693,0.444871 0.21806,0.244678 0.44575,0.44487 0.50599,0.44487 0.0602,0 -0.0689,-0.200192 -0.28694,-0.44487 z m 1.69757,-1.037055 c -0.15059,-0.06171 -0.39701,-0.06171 -0.5476,0 -0.1506,0.06171 -0.0274,0.112193 0.2738,0.112193 0.30118,0 0.42439,-0.05049 0.2738,-0.112193 z M 63.897022,42.088906 c -0.271064,-0.05302 -0.714624,-0.05302 -0.985688,0 -0.271064,0.05302 -0.04928,0.0964 0.492844,0.0964 0.542129,0 0.763908,-0.04338 0.492844,-0.0964 z m 52.077188,-0.135057 c 0,-0.03828 -0.32035,-0.363593 -0.71188,-0.722915 l -0.71189,-0.653312 0.64335,0.722914 c 0.59969,0.673858 0.78042,0.825157 0.78042,0.653313 z m -49.781418,-0.08454 c -0.21312,-0.0564 -0.508827,-0.05269 -0.657125,0.0082 -0.148299,0.06093 0.02607,0.107073 0.387492,0.10254 0.361419,-0.0045 0.482754,-0.05438 0.269633,-0.110782 z m 1.866024,-0.215604 c -0.150591,-0.06171 -0.397013,-0.06171 -0.547604,0 -0.150591,0.06171 -0.02738,0.112193 0.273802,0.112193 0.301183,0 0.424394,-0.05049 0.273802,-0.112193 z m 45.724974,-2.146639 c 0,-0.03828 -0.32034,-0.363592 -0.71188,-0.722914 l -0.71189,-0.653312 0.64335,0.722914 c 0.59969,0.673857 0.78042,0.825157 0.78042,0.653312 z m -95.342111,-0.08454 c -0.21312,-0.0564 -0.50883,-0.05269 -0.65712,0.0082 -0.1483,0.06093 0.0261,0.107073 0.38749,0.10254 0.36142,-0.0045 0.48275,-0.05439 0.26963,-0.110782 z m 54.178833,-1.124857 0.531026,-0.611697 -0.602365,0.539253 c -0.563,0.504013 -0.702815,0.684141 -0.531026,0.684141 0.03924,0 0.310301,-0.275264 0.602365,-0.611697 z M 38.047539,35.637947 c -0.27247,-0.0532 -0.66675,-0.05118 -0.87617,0.0045 -0.20942,0.05567 0.0135,0.09921 0.4954,0.09674 0.48189,-0.0025 0.65324,-0.04802 0.38077,-0.101225 z m -1.8593,0.004 c -0.21083,-0.05595 -0.55582,-0.05595 -0.76665,0 -0.21083,0.05595 -0.0383,0.101724 0.38332,0.101724 0.42166,0 0.59415,-0.04578 0.38333,-0.101724 z m 74.511681,-1.53347 c -0.0105,-0.259124 -0.0624,-0.311831 -0.13234,-0.134388 -0.0633,0.160571 -0.0555,0.352421 0.0173,0.426334 0.0728,0.07391 0.12456,-0.05746 0.11505,-0.291946 z M 76.09131,32.773856 c -0.01051,-0.259124 -0.06241,-0.311831 -0.132338,-0.134387 -0.06327,0.16057 -0.05549,0.35242 0.01729,0.426334 0.07279,0.07391 0.124556,-0.05746 0.115045,-0.291947 z m 32.5138,-4.766727 c 1.40085,-1.690602 3.42635,-6.261582 3.42635,-7.732286 0,-1.201545 -2.00852,-1.22572 -4.98103,-0.05995 -3.73723,1.465675 -4.78586,2.719804 -3.31507,3.964694 1.28676,1.089121 1.99292,1.920433 2.68694,3.163149 0.8325,1.490691 1.36407,1.652487 2.18281,0.664397 z M 79.911313,26.5086 c 0.869835,-1.448888 2.008318,-2.624295 3.370909,-3.480238 0.51201,-0.321631 0.930927,-0.673189 0.930927,-0.78124 0,-0.523586 -3.392397,-2.248977 -5.899124,-3.000325 -2.481479,-0.74378 -3.224937,-0.395177 -3.014021,1.41326 0.243909,2.091338 2.735313,7.127545 3.525985,7.127545 0.174614,0 0.66301,-0.575551 1.085324,-1.279002 z m -8.200839,-5.078935 c -0.01051,-0.259124 -0.06241,-0.311832 -0.132338,-0.134388 -0.06327,0.16057 -0.05549,0.352421 0.01729,0.426334 0.07279,0.07391 0.124556,-0.05746 0.115045,-0.291946 z M 115.95692,21.20723 c -0.0105,-0.259124 -0.0624,-0.311832 -0.13234,-0.134388 -0.0633,0.16057 -0.0555,0.352421 0.0173,0.426334 0.0728,0.07391 0.12455,-0.05746 0.11504,-0.291946 z m 0.19363,-1.316075 c -0.004,-0.367018 -0.0536,-0.490232 -0.10909,-0.27381 -0.0555,0.216422 -0.0519,0.516709 0.008,0.667305 0.06,0.150596 0.10544,-0.02648 0.10097,-0.393495 z m -44.676411,0.111218 c 0,-0.305848 -0.04972,-0.430968 -0.110481,-0.278044 -0.06076,0.152924 -0.06076,0.403164 0,0.556088 0.06077,0.152924 0.110481,0.0278 0.110481,-0.278044 z m 16.065708,-0.819254 c -0.158121,-0.06426 -0.347045,-0.05635 -0.41983,0.01756 -0.07279,0.07391 0.05658,0.126485 0.287492,0.116827 0.255171,-0.01067 0.307075,-0.06338 0.132338,-0.134388 z m 9.856881,-0.222435 c -0.158121,-0.06425 -0.347044,-0.05635 -0.41983,0.01756 -0.07279,0.07391 0.05659,0.126485 0.287492,0.116827 0.255171,-0.01067 0.307075,-0.06338 0.132338,-0.134388 z m -0.876167,-0.222435 c -0.158121,-0.06425 -0.347045,-0.05635 -0.41983,0.01756 -0.07279,0.07391 0.05658,0.126486 0.287492,0.116828 0.255171,-0.01067 0.307074,-0.06338 0.132338,-0.134388 z m -7.009338,0 c -0.158121,-0.06425 -0.347044,-0.05635 -0.41983,0.01756 -0.07279,0.07391 0.05659,0.126486 0.287492,0.116828 0.255171,-0.01067 0.307075,-0.06338 0.132338,-0.134388 z M 95.22,18.520448 c -0.150591,-0.06171 -0.397013,-0.06171 -0.547605,0 -0.150591,0.06171 -0.02738,0.112193 0.273803,0.112193 0.301182,0 0.424393,-0.05049 0.273802,-0.112193 z m -4.056442,-0.0068 c -0.213121,-0.0564 -0.508827,-0.05269 -0.657126,0.0082 -0.148298,0.06093 0.02607,0.107073 0.387492,0.10254 0.361419,-0.0045 0.482754,-0.05438 0.269634,-0.110782 z m 25.012402,-0.642914 c -0.0105,-0.259124 -0.0624,-0.311832 -0.13234,-0.134388 -0.0633,0.16057 -0.0555,0.352421 0.0173,0.426334 0.0728,0.07391 0.12455,-0.05746 0.11504,-0.291946 z m -0.42079,-1.288839 c 0,-0.04619 -0.17249,-0.221357 -0.38332,-0.389261 -0.34741,-0.276681 -0.35516,-0.268813 -0.0827,0.08398 0.28615,0.37052 0.46602,0.488351 0.46602,0.305279 z m -6.0921,-0.735272 c -0.15812,-0.06425 -0.34704,-0.05635 -0.41983,0.01756 -0.0728,0.07391 0.0566,0.126485 0.28749,0.116827 0.25517,-0.01067 0.30708,-0.06338 0.13234,-0.134387 z m 1.09521,-0.222435 c -0.15812,-0.06426 -0.34704,-0.05635 -0.41983,0.01756 -0.0728,0.07391 0.0566,0.126485 0.28749,0.116827 0.25517,-0.01067 0.30708,-0.06338 0.13234,-0.134387 z m 1.97138,-0.222435 c -0.15812,-0.06425 -0.34705,-0.05635 -0.41983,0.01756 -0.0728,0.07391 0.0566,0.126485 0.28749,0.116827 0.25517,-0.01067 0.30707,-0.06338 0.13234,-0.134387 z M 72.603934,14.441495 c 0.19742,-0.12956 0.224437,-0.216983 0.06769,-0.219029 -0.143481,-0.0019 -0.321793,0.09669 -0.39625,0.219029 -0.168072,0.276159 -0.09224,0.276159 0.328563,0 z m 3.545739,-0.151949 c -0.158121,-0.06425 -0.347044,-0.05635 -0.41983,0.01756 -0.07279,0.07391 0.05659,0.126485 0.287492,0.116827 0.255171,-0.01067 0.307075,-0.06338 0.132338,-0.134387 z M 74.408475,14.06174 c -0.272469,-0.05321 -0.666744,-0.05119 -0.876167,0.0045 -0.209423,0.05567 0.01351,0.0992 0.495398,0.09674 0.481892,-0.0025 0.653238,-0.04802 0.380769,-0.101225 z"
       id="path13" /><path
       style="fill:#fce060"
       d="m 55.126766,78.56033 c -0.757677,-0.04356 -1.940503,-0.0432 -2.628501,7.99e-4 -0.687999,0.044 -0.06808,0.07964 1.377595,0.0792 1.445676,-4.39e-4 2.008584,-0.03644 1.250906,-0.08 z m 3.618605,-0.211664 c -0.213121,-0.0564 -0.508827,-0.05269 -0.657125,0.0082 -0.148299,0.06093 0.02607,0.107073 0.387492,0.10254 0.361419,-0.0045 0.482754,-0.05438 0.269633,-0.110782 z m -9.199753,0 c -0.21312,-0.0564 -0.50883,-0.05269 -0.657129,0.0082 -0.1483,0.06093 0.0261,0.107073 0.387489,0.10254 0.36142,-0.0045 0.48276,-0.05438 0.26964,-0.110782 z m 10.833045,-0.220239 c -0.158121,-0.06426 -0.347044,-0.05635 -0.41983,0.01756 -0.07279,0.07391 0.05659,0.126486 0.287492,0.116827 0.255172,-0.01067 0.307075,-0.06338 0.132338,-0.134387 z m 1.314251,-0.222435 c -0.158121,-0.06426 -0.347044,-0.05635 -0.41983,0.01756 -0.07279,0.07391 0.05659,0.126486 0.287492,0.116827 0.255171,-0.01067 0.307075,-0.06338 0.132338,-0.134387 z m 41.919216,-11.915157 0.64335,-0.722914 -0.71189,0.653312 c -0.39154,0.359322 -0.71189,0.684633 -0.71189,0.722915 0,0.171844 0.18074,0.02054 0.78043,-0.653313 z m 3.58312,-6.969634 c -0.0105,-0.259124 -0.0624,-0.311831 -0.13234,-0.134388 -0.0633,0.160571 -0.0555,0.352421 0.0173,0.426334 0.0728,0.07391 0.12456,-0.05746 0.11505,-0.291946 z m 0,-2.446786 c -0.0105,-0.259124 -0.0624,-0.311832 -0.13234,-0.134388 -0.0633,0.16057 -0.0555,0.352421 0.0173,0.426334 0.0728,0.07391 0.12456,-0.05746 0.11505,-0.291946 z m -41.6904,-7.647534 c 0.711962,-0.362649 1.809951,-1.176418 2.439976,-1.808374 l 1.145499,-1.149011 -0.549979,-0.663739 c -0.771589,-0.931187 -0.438245,-1.910456 1.330268,-3.90794 0.56187,-0.634616 0.933029,-1.153848 0.824797,-1.153848 -0.387048,0 -1.551285,1.033141 -3.439688,3.05237 -2.523771,2.698615 -3.066202,3.032356 -4.729885,2.910152 -1.047295,-0.07693 -1.781141,-0.351332 -3.875735,-1.449235 -5.136111,-2.692146 -6.561113,-2.714687 -11.679844,-0.184754 -2.08647,1.031241 -3.11888,1.226252 -4.00613,0.756715 -0.26314,-0.139258 -1.41485,-1.228238 -2.55934,-2.419957 -1.7126,-1.78327 -2.29852,-2.247685 -3.31049,-2.623982 -1.73083,-0.643599 -3.54581,-0.800667 -5.77345,-0.499631 -1.91597,0.258917 -5.23853,1.194991 -5.75614,1.621693 -0.15059,0.124142 -0.27531,0.138384 -0.27716,0.03165 -0.002,-0.106734 -0.0989,-0.04392 -0.21569,0.13959 -0.34152,0.536653 -0.25138,1.458376 0.18153,1.856224 0.53064,0.487658 1.30356,0.464281 2.91878,-0.08828 1.99059,-0.680969 4.75398,-0.990658 6.20295,-0.695155 1.60483,0.327289 2.64685,1.07583 4.34904,3.124172 1.91412,2.303361 3.18812,3.031029 5.29482,3.024214 1.28235,-0.0041 1.85593,-0.144519 3.50467,-0.85769 5.494151,-2.376529 5.772917,-2.384184 10.167073,-0.279193 1.636488,0.783949 3.310491,1.537414 3.720006,1.674367 1.321801,0.442046 2.689864,0.304924 4.094122,-0.410358 z M 12.518609,48.140416 c -10e-4,-0.734036 -0.0421,-1.007506 -0.0909,-0.607713 -0.0487,0.399794 -0.0477,1.000369 0.002,1.334611 0.05,0.334242 0.0899,0.0071 0.0886,-0.726898 z m 14.53642,-9.175449 0.75486,-0.834131 -0.82141,0.766548 c -0.45177,0.421602 -0.82141,0.796961 -0.82141,0.834132 0,0.169856 0.18536,0.0098 0.88796,-0.766549 z m 12.7474,-3.094579 c -0.1506,-0.06171 -0.39702,-0.06171 -0.54761,0 -0.15059,0.06171 -0.0274,0.112193 0.2738,0.112193 0.30119,0 0.4244,-0.05049 0.27381,-0.112193 z m -5.70878,-0.0046 c -0.15812,-0.06425 -0.34705,-0.05635 -0.41983,0.01756 -0.0728,0.07391 0.0566,0.126486 0.28749,0.116827 0.25517,-0.01067 0.30708,-0.06338 0.13234,-0.134387 z"
       id="path12" /><path
       style="fill:#aeaeae"
       d="m 82.950876,112.20234 c 1.159566,-0.6682 1.029758,-1.97307 -0.426207,-4.28437 -1.553006,-2.46534 -2.035064,-3.79673 -2.032886,-5.6146 0.0051,-4.220049 0.872683,-17.112585 1.302319,-19.351856 0.246462,-1.284563 0.491145,-3.286479 0.543741,-4.448703 0.278694,-6.158433 2.891088,-9.732769 8.556081,-11.706624 1.485686,-0.517658 2.12515,-0.612694 4.202362,-0.624546 l 2.450028,-0.01398 0.112657,-0.667306 c 0.06196,-0.367018 0.179544,-1.152476 0.261294,-1.745463 0.127491,-0.924776 0.325055,-1.25704 1.388733,-2.335569 1.541262,-1.562782 2.433932,-3.131672 3.530292,-6.204615 0.51783,-1.451428 1.04976,-2.555455 1.35174,-2.805598 0.81462,-0.674773 2.22604,-0.398695 4.31269,0.843579 3.2803,1.952897 4.91236,1.502535 3.8563,-1.064132 -0.18071,-0.439199 -0.32856,-1.113407 -0.32856,-1.49824 0,-0.643003 0.0488,-0.690341 0.60237,-0.584242 0.3313,0.0635 0.98588,0.261992 1.45464,0.441095 0.97958,0.374284 1.58942,0.27864 1.89271,-0.296842 0.29531,-0.560347 0.006,-1.213895 -1.207,-2.725969 -1.35108,-1.684289 -1.23005,-2.175489 0.3373,-1.368948 1.40033,0.720594 2.17949,0.662538 2.45517,-0.182937 0.31059,-0.95259 -0.64588,-2.681582 -2.86504,-5.179065 -2.35388,-2.649097 -3.21107,-3.873918 -3.76923,-5.385749 -0.73911,-2.001976 -0.61971,-2.638987 0.99053,-5.284398 2.60045,-4.272217 3.53648,-6.584608 4.04774,-9.999672 0.45056,-3.009558 -0.37784,-4.294819 -2.90074,-4.50047 -2.12862,-0.173512 -4.31754,0.423086 -8.91936,2.431008 l -4.05687,1.770139 -2.40946,-0.628862 c -2.975323,-0.77655 -5.977892,-0.845808 -8.981084,-0.207158 l -1.971746,0.419306 -1.532923,-1.00422 c -3.599298,-2.357904 -7.505013,-3.89972 -10.415037,-4.111429 -2.981026,-0.216874 -3.692243,0.732365 -3.420486,4.565221 0.208954,2.947088 0.636887,4.263006 2.776359,8.537448 1.396068,2.789199 1.9693,4.167232 1.9693,4.734141 0,1.484967 -1.753235,4.266619 -4.885186,7.750751 -2.203104,2.450838 -2.503931,2.847691 -2.913857,3.843981 -0.31786,0.772532 -0.312512,0.863774 0.08225,1.403221 0.600731,0.820914 1.615356,0.873175 2.707191,0.139439 0.926021,-0.622305 1.285896,-0.583609 1.285896,0.138269 0,0.444087 -0.740811,1.697025 -1.194177,2.01972 -0.442582,0.31502 -1.599572,0.166011 -2.154829,-0.277521 l -0.560542,-0.447753 -1.056014,0.928133 c -1.996213,1.754475 -4.102862,2.357616 -6.008602,1.720285 -0.409515,-0.136953 -2.083518,-0.890418 -3.720006,-1.674367 -4.394156,-2.104991 -4.672922,-2.097336 -10.167078,0.279193 -1.64873,0.713171 -2.22231,0.853542 -3.50466,0.85769 -2.1067,0.0068 -3.38071,-0.720853 -5.29482,-3.024214 -0.78636,-0.946264 -1.81336,-1.978283 -2.28224,-2.293376 -1.96047,-1.317479 -4.92209,-1.303585 -6.90351,0.03239 -0.64951,0.437929 -1.18092,0.828381 -1.18092,0.867671 0,0.154112 2.62279,1.863616 4.54237,2.960667 4.14865,2.370968 9.39379,4.240758 14.1857,5.056919 2.892879,0.492717 11.023919,0.561381 14.347238,0.121157 2.25164,-0.298264 9.906201,-1.63384 10.06132,-1.75551 0.05221,-0.04095 -0.02172,-0.192897 -0.164281,-0.337665 -0.14256,-0.144768 -0.2592,-0.484741 -0.2592,-0.755494 0,-0.456168 0.04888,-0.473544 0.666312,-0.236878 0.582741,0.223367 0.809827,0.179097 1.810567,-0.352975 0.62934,-0.334606 1.265903,-0.608375 1.414585,-0.608375 0.40233,0 0.327513,0.793639 -0.167753,1.779481 -0.549554,1.093902 -0.549554,1.443849 0,2.001916 0.614947,0.624474 1.177744,0.559199 2.876739,-0.333652 1.619853,-0.851261 2.30025,-0.946991 3.236456,-0.45536 0.673732,0.353797 0.700774,0.413764 1.861847,4.128628 1.210076,3.871652 2.995706,6.356905 5.496029,7.649414 0.955859,0.494118 1.019612,0.566881 0.501061,0.571875 -1.571502,0.01513 -4.493543,-1.68623 -5.830767,-3.394975 l -0.646336,-0.825908 -0.346839,1.559645 c -0.190762,0.857804 -0.68381,2.30027 -1.095662,3.205481 -2.207502,4.851864 -5.352365,8.030493 -10.651791,10.766153 l -1.86247,0.961442 1.286508,-0.11407 1.286508,-0.11407 -0.131368,1.488198 c -0.470672,5.331991 -0.325425,17.199757 0.308141,25.17753 0.431387,5.43197 0.791351,6.39988 2.938613,7.90166 1.822215,1.27445 3.824256,1.9248 6.249376,2.03006 1.604368,0.0696 2.218202,0.0112 2.680479,-0.25518 z m 6.604226,-51.37811 c -1.371344,-0.413554 -2.797921,-1.639918 -3.463277,-2.977222 -0.282297,-0.567392 -0.930443,-2.232771 -1.440323,-3.700843 -1.570207,-4.521015 -1.675028,-4.652533 -4.009715,-5.030925 -1.633606,-0.264765 -2.071839,-0.597836 -1.662454,-1.26352 0.154331,-0.250952 0.680451,-0.68904 1.169156,-0.97353 1.273394,-0.741281 3.964956,-0.735751 5.378911,0.01105 1.716792,0.906751 3.285627,2.792961 3.285627,3.950307 0,0.334156 0.06092,0.323335 0.492844,-0.08754 0.717469,-0.682505 1.556111,-0.943331 3.03312,-0.943331 1.312503,0 2.611976,0.401438 3.276579,1.012212 0.321352,0.295326 0.396604,0.238399 0.756644,-0.572396 0.886021,-1.995284 3.094595,-3.190324 5.917116,-3.201698 2.29052,-0.0092 4.10033,0.833459 4.54174,2.114748 0.22743,0.660153 -0.20219,0.892206 -1.99083,1.075313 -2.45705,0.251533 -3.06351,0.737968 -3.9708,3.184958 -2.07078,5.584901 -2.770499,6.512899 -5.59468,7.419906 -1.215493,0.390365 -4.399494,0.380627 -5.719658,-0.01749 z M 95.22,58.55877 c -0.150591,-0.06171 -0.397013,-0.06171 -0.547605,0 -0.150591,0.06171 -0.02738,0.112194 0.273803,0.112194 0.301182,0 0.424393,-0.05049 0.273802,-0.112194 z m -5.151651,-0.229266 c -0.213121,-0.0564 -0.508827,-0.05269 -0.657126,0.0082 -0.148298,0.06093 0.02607,0.107073 0.387492,0.10254 0.361419,-0.0045 0.482754,-0.05439 0.269634,-0.110782 z m -2.569573,-0.819576 c 0,-0.04619 -0.172495,-0.221358 -0.383323,-0.389262 -0.347412,-0.27668 -0.35516,-0.268813 -0.0827,0.08398 0.286149,0.370521 0.466023,0.488351 0.466023,0.30528 z m 10.353376,-1.278231 c -0.148583,-0.152016 -0.32533,-0.22036 -0.39277,-0.151875 -0.06744,0.06849 0.05413,0.192862 0.270152,0.276393 0.312178,0.120712 0.337338,0.09516 0.122618,-0.124518 z m -1.389954,-3.438679 c -0.01051,-0.259124 -0.06241,-0.311832 -0.132338,-0.134388 -0.06328,0.16057 -0.05549,0.352421 0.01729,0.426334 0.07278,0.07391 0.124556,-0.05746 0.115045,-0.291946 z M 88.5594,52.477901 c 0,-0.305848 -0.04972,-0.430968 -0.110482,-0.278044 -0.06077,0.152925 -0.06077,0.403164 0,0.556088 0.06077,0.152924 0.110482,0.02781 0.110482,-0.278044 z M 99.546076,40.720437 c -0.775046,-0.577649 -1.088257,-1.311734 -1.09198,-2.559316 -0.009,-3.024253 2.894014,-4.541373 4.760934,-2.488048 1.20388,1.324087 1.01087,3.608188 -0.41727,4.937952 -0.89797,0.836109 -2.21711,0.880495 -3.251684,0.109412 z M 83.629655,40.52941 c -1.140627,-0.749613 -1.608949,-3.251422 -0.875085,-4.674769 0.999306,-1.93818 3.661144,-1.777673 4.622074,0.278707 0.501903,1.074068 0.379671,2.985141 -0.245721,3.841802 -0.789469,1.081414 -2.328437,1.325036 -3.501268,0.55426 z M 106.4223,27.342732 c -0.69402,-1.242716 -1.40018,-2.074028 -2.68694,-3.163149 -1.47079,-1.24489 -0.42216,-2.499019 3.31507,-3.964694 2.97251,-1.165766 4.98103,-1.141591 4.98103,0.05995 0,0.80982 -1.26723,4.293365 -2.06409,5.67406 -1.80145,3.121327 -2.44009,3.372422 -3.54507,1.393829 z m -28.767471,-0.8964 c -1.737787,-2.730346 -2.863893,-6.414249 -2.206581,-7.218531 0.520332,-0.636674 2.438611,-0.3049 5.369753,0.92872 1.498717,0.63076 3.395148,1.798509 3.395148,2.090601 0,0.108051 -0.418917,0.459609 -0.930927,0.78124 -1.362591,0.855943 -2.501074,2.03135 -3.370909,3.480238 -0.422314,0.703451 -0.91071,1.279002 -1.085324,1.279002 -0.174614,0 -0.701636,-0.603571 -1.17116,-1.34127 z m 15.481262,83.705088 c -0.332957,-0.0511 -0.825801,-0.0498 -1.095209,0.003 -0.269408,0.0528 0.003,0.0946 0.605377,0.093 0.602365,-0.002 0.822789,-0.0449 0.489832,-0.096 z m 1.502356,-0.5633 0.417272,-0.50048 -0.492844,0.42374 c -0.271065,0.23305 -0.492844,0.45827 -0.492844,0.50048 0,0.178 0.176283,0.0466 0.568416,-0.42374 z M 85.5274,107.3354 c 0,-0.0462 -0.172495,-0.22136 -0.383323,-0.38927 -0.347412,-0.27668 -0.35516,-0.26881 -0.0827,0.084 0.286149,0.37052 0.466023,0.48835 0.466023,0.30528 z m -58.703201,-1.01259 c 2.14004,-0.43455 2.29764,-1.39799 0.76664,-4.68675 -0.85735,-1.841711 -0.98383,-2.30297 -0.98469,-3.591136 -10e-4,-1.851257 0.58323,-3.822648 2.0306,-6.849121 0.88202,-1.844329 1.14429,-2.232873 1.27623,-1.890698 0.13141,0.340819 0.16927,0.283291 0.18145,-0.275717 0.0115,-0.526481 0.46394,-1.305742 1.77648,-3.059586 0.9686,-1.294255 2.35068,-3.27858 3.07129,-4.409611 1.34604,-2.112675 2.78237,-5.444647 2.46492,-5.718091 -0.0981,-0.08454 -1.11484,-0.533624 -2.25933,-0.997966 -5.27282,-2.139277 -10.23844,-5.337886 -14.2801,-9.19853 l -1.55972,-1.489859 0.14807,2.001917 c 0.16834,2.276118 0.63392,5.176559 1.24929,7.782839 0.74855,3.170381 0.33452,11.540737 -0.62606,12.656847 -0.20566,0.238958 -0.24677,0.358828 -0.0914,0.266378 0.47713,-0.283816 0.0967,0.909547 -0.98655,3.094494 l -0.99248,2.001916 0.12659,3.114092 c 0.14112,3.471551 0.63433,6.744972 1.28193,8.508132 0.52223,1.42183 1.55413,2.12806 3.82248,2.61609 1.6066,0.34566 2.36486,0.37197 3.5843,0.12436 z m 12.21158,-1.2871 c -0.3313,-0.051 -0.87343,-0.051 -1.20473,0 -0.3313,0.051 -0.0602,0.0927 0.60236,0.0927 0.66261,0 0.93367,-0.0417 0.60237,-0.0927 z m 44.047576,-1.17529 c 0,-0.30585 -0.04972,-0.43097 -0.110482,-0.27805 -0.06077,0.15293 -0.06077,0.40317 0,0.55609 0.06077,0.15292 0.110482,0.0278 0.110482,-0.27804 z m -49.797426,-0.22244 c -0.21805,-0.24468 -0.44574,-0.44487 -0.50598,-0.44487 -0.0602,0 0.0689,0.20019 0.28694,0.44487 0.21805,0.24468 0.44575,0.44487 0.50598,0.44487 0.0602,0 -0.0689,-0.20019 -0.28694,-0.44487 z m 8.63486,-1.46436 c -0.0105,-0.25913 -0.0624,-0.31184 -0.13234,-0.13439 -0.0633,0.16057 -0.0555,0.35242 0.0173,0.42633 0.0728,0.0739 0.12456,-0.0575 0.11505,-0.29194 z m 40.91845,-0.98243 c 0,-0.55052 -0.04272,-0.77574 -0.09493,-0.50048 -0.05221,0.27527 -0.05221,0.7257 0,1.00096 0.05221,0.27527 0.09493,0.05 0.09493,-0.50048 z m 8.962623,-3.225305 c 6.68e-4,-1.101054 -0.03637,-1.57953 -0.08231,-1.063279 -0.04594,0.516251 -0.04649,1.417113 -0.0012,2.001916 0.04527,0.584803 0.08286,0.162417 0.08352,-0.938637 z m -60.395083,-0.01854 c -0.0105,-0.259124 -0.0624,-0.311831 -0.13233,-0.134387 -0.0633,0.16057 -0.0555,0.35242 0.0173,0.426333 0.0728,0.07391 0.12455,-0.05746 0.11504,-0.291946 z m 51.205203,-1.093639 c -0.0012,-0.734036 -0.04212,-1.007507 -0.09087,-0.607713 -0.04875,0.399794 -0.04774,1.000369 0.0022,1.334611 0.04998,0.334242 0.08987,0.0071 0.08864,-0.726898 z M 30.968699,95.500562 c -0.0105,-0.259124 -0.0624,-0.311832 -0.13234,-0.134388 -0.0633,0.16057 -0.0555,0.352421 0.0173,0.426334 0.0728,0.07391 0.12456,-0.05746 0.11505,-0.291946 z m -0.21904,-1.334611 c -0.0105,-0.259124 -0.0624,-0.311831 -0.13234,-0.134388 -0.0633,0.160571 -0.0555,0.352421 0.0173,0.426334 0.0728,0.07391 0.12456,-0.05746 0.11505,-0.291946 z m 61.293757,-1.093639 c -0.0024,-0.489357 -0.04729,-0.663358 -0.09968,-0.386668 -0.05239,0.27669 -0.0504,0.677073 0.0044,0.88974 0.05483,0.212668 0.09769,-0.01372 0.09526,-0.503072 z M 38.635159,92.83134 c -0.0105,-0.259124 -0.0624,-0.311831 -0.13233,-0.134387 -0.0633,0.16057 -0.0555,0.35242 0.0173,0.426334 0.0728,0.07391 0.12455,-0.05746 0.11504,-0.291947 z m -8.10454,-0.222435 c -0.0105,-0.259124 -0.0624,-0.311831 -0.13234,-0.134388 -0.0633,0.160571 -0.0555,0.352421 0.0173,0.426334 0.0728,0.07391 0.12455,-0.05746 0.11504,-0.291946 z m 51.850195,-1.98338 c -5.7e-4,-1.223393 -0.03735,-1.695492 -0.08174,-1.04911 -0.04439,0.646383 -0.04392,1.647341 10e-4,2.224351 0.04496,0.577011 0.08128,0.04815 0.0807,-1.175241 z m -52.086535,0.333653 c 0,-0.305848 -0.0497,-0.430968 -0.11048,-0.278044 -0.0608,0.152924 -0.0608,0.403164 0,0.556088 0.0608,0.152924 0.11048,0.0278 0.11048,-0.278044 z M 92.274994,90.40309 c -0.0045,-0.367018 -0.05356,-0.490232 -0.109092,-0.27381 -0.05554,0.216422 -0.05188,0.516709 0.0081,0.667305 0.06,0.150596 0.105439,-0.02648 0.100975,-0.393495 z m 0.227158,-2.113133 c 0,-0.305849 -0.04972,-0.430968 -0.110481,-0.278044 -0.06076,0.152924 -0.06076,0.403163 0,0.556088 0.06077,0.152924 0.110481,0.0278 0.110481,-0.278044 z M 41.966019,87.010955 c 0.27246,-0.352795 0.26471,-0.360662 -0.0827,-0.08398 -0.21083,0.167904 -0.38332,0.343072 -0.38332,0.389262 0,0.183071 0.17987,0.06524 0.46602,-0.30528 z m 50.755175,-0.722914 c 0,-0.305849 -0.04972,-0.430969 -0.110481,-0.278044 -0.06077,0.152924 -0.06077,0.403163 0,0.556087 0.06076,0.152925 0.110481,0.02781 0.110481,-0.278043 z M 82.378879,83.730037 c -4.95e-4,-1.345733 -0.03657,-1.867581 -0.08017,-1.159663 -0.0436,0.707918 -0.0432,1.808972 8.99e-4,2.446786 0.04409,0.637815 0.07977,0.05861 0.07927,-1.287123 z m -39.31765,1.946307 c 0.27246,-0.352795 0.26471,-0.360662 -0.0827,-0.08398 -0.36487,0.290583 -0.4809,0.473243 -0.30062,0.473243 0.0455,0 0.21798,-0.175167 0.38332,-0.389261 z M 92.940236,84.50856 c 0,-0.305849 -0.04972,-0.430969 -0.110482,-0.278044 -0.06077,0.152924 -0.06077,0.403163 0,0.556087 0.06077,0.152925 0.110482,0.02781 0.110482,-0.278043 z m 0.219042,-1.779481 c 0,-0.305849 -0.04972,-0.430969 -0.110482,-0.278044 -0.06077,0.152924 -0.06077,0.403163 0,0.556087 0.06076,0.152925 0.110482,0.02781 0.110482,-0.278043 z m 0.219042,-1.779481 c 0,-0.305849 -0.04972,-0.430969 -0.110482,-0.278044 -0.06077,0.152924 -0.06077,0.403163 0,0.556087 0.06076,0.152925 0.110482,0.02781 0.110482,-0.278043 z m -2.785018,-0.389262 c 0.263943,-0.341768 0.259268,-0.356578 -0.03832,-0.121385 -0.186418,0.147331 -1.122822,0.302355 -2.080898,0.344497 l -1.741955,0.07662 1.780274,0.04476 c 1.469304,0.03694 1.832786,-0.02323 2.080898,-0.344498 z m -5.781956,0.01268 c -0.213121,-0.0564 -0.508827,-0.05269 -0.657126,0.0082 -0.148298,0.06093 0.02607,0.107073 0.387492,0.10254 0.361419,-0.0045 0.482754,-0.05438 0.269634,-0.110782 z m 8.786015,-1.402901 c 0,-0.305848 -0.04972,-0.430968 -0.110481,-0.278043 -0.06076,0.152924 -0.06076,0.403163 0,0.556087 0.06077,0.152925 0.110481,0.02781 0.110481,-0.278044 z m 0.219042,-1.779481 c 0,-0.305848 -0.04972,-0.430968 -0.110481,-0.278043 -0.06076,0.152924 -0.06076,0.403163 0,0.556087 0.06076,0.152925 0.110481,0.02781 0.110481,-0.278044 z M 11.254939,75.703836 c -0.0105,-0.259124 -0.0624,-0.311832 -0.13234,-0.134388 -0.0633,0.16057 -0.0555,0.352421 0.0173,0.426334 0.0728,0.07391 0.12456,-0.05746 0.11504,-0.291946 z m 0.19363,-1.760945 c -0.005,-0.367018 -0.0536,-0.490233 -0.10909,-0.273811 -0.0555,0.216423 -0.0519,0.51671 0.008,0.667306 0.06,0.150596 0.10544,-0.02648 0.10097,-0.393495 z m 0.21093,-2.558004 c 0,-0.428188 -0.0451,-0.603355 -0.10018,-0.389261 -0.0551,0.214093 -0.0551,0.564429 0,0.778523 0.0551,0.214093 0.10018,0.03893 0.10018,-0.389262 z m 0.22715,-2.558004 c -0.004,-0.367018 -0.0536,-0.490233 -0.10909,-0.27381 -0.0555,0.216422 -0.0519,0.516709 0.008,0.667305 0.06,0.150596 0.10544,-0.02648 0.10098,-0.393495 z m 0.22716,-2.113134 c 0,-0.305848 -0.0497,-0.430968 -0.11048,-0.278043 -0.0608,0.152924 -0.0608,0.403163 0,0.556087 0.0608,0.152924 0.11048,0.02781 0.11048,-0.278044 z m 0.23634,-1.686799 c -0.0105,-0.259125 -0.0624,-0.311832 -0.13234,-0.134388 -0.0633,0.16057 -0.0555,0.35242 0.0173,0.426334 0.0728,0.07391 0.12456,-0.05746 0.11504,-0.291946 z m 0.21904,-1.334611 c -0.0105,-0.259124 -0.0624,-0.311832 -0.13234,-0.134388 -0.0633,0.16057 -0.0555,0.352421 0.0173,0.426334 0.0728,0.07391 0.12456,-0.05746 0.11505,-0.291946 z M 64.82795,45.633095 c 0.927607,-0.694928 3.947975,-3.801707 3.806865,-3.915776 -0.04573,-0.03697 -1.118127,0.05918 -2.383093,0.213678 C 62.244561,42.420401 56.195875,42.321995 51.144631,41.685218 45.920879,41.026695 40.655869,40.631687 39.419099,40.80551 l -0.87617,0.123142 1.97138,2.077575 c 1.08426,1.142667 2.18668,2.189763 2.44982,2.326881 0.89176,0.464671 1.92334,0.268814 4.00613,-0.760606 5.120545,-2.53083 6.542874,-2.507852 11.687578,0.188817 2.179382,1.142354 2.80646,1.371902 3.942752,1.443285 1.220016,0.07664 1.436254,0.02116 2.227361,-0.571509 z"
       id="path11" /><path
       style="fill:#f4ae3b"
       d="m 58.585258,78.363462 c 3.779901,-0.472339 8.863423,-1.907578 11.718737,-3.308571 3.670934,-1.801186 6.968318,-4.612617 8.821093,-7.521084 1.926854,-3.024755 3.106111,-6.296302 3.113447,-8.637466 0.0072,-2.281581 -1.488361,-5.39239 -3.274992,-6.8123 l -0.6485,-0.51539 -1.046717,0.565843 c -1.273363,0.688365 -1.891398,0.712574 -2.496791,0.0978 -0.347894,-0.353284 -0.428407,-0.633023 -0.328376,-1.140928 l 0.132525,-0.672888 -1.369198,0.157007 c -0.753059,0.08635 -3.192721,0.491598 -5.421472,0.900543 -6.166987,1.131555 -8.20834,1.333451 -13.471071,1.332325 -6.889494,-0.0015 -11.306014,-0.857831 -17.033244,-3.30272 -3.16184,-1.349757 -7.83286,-4.048632 -9.42891,-5.447939 -0.25262,-0.221479 -0.71539,-0.323939 -1.27709,-0.282754 -1.02957,0.07549 -1.72188,-0.422859 -1.72188,-1.239463 0,-0.450414 -0.31152,-0.684141 -2.04845,-1.536883 -3.63989,-1.786997 -5.82861,-1.825812 -7.55565,-0.133992 -3.54651,3.47417 -3.54725,10.09926 -0.002,17.239836 3.96567,7.987183 13.72329,15.237713 24.88121,18.48832 2.58503,0.75309 5.22754,1.342766 7.06707,1.577014 1.28156,0.163196 10.394129,0.318154 11.390171,0.193688 z M 100.924,68.050944 c 4.5718,-3.105175 6.87705,-7.731398 6.00828,-12.057537 -0.48947,-2.437393 -1.18296,-3.960376 -1.80334,-3.960376 -0.89525,0 -1.41488,0.719804 -2.28965,3.171678 -1.09631,3.072803 -1.98902,4.641829 -3.530001,6.204321 -1.21402,1.230971 -1.245107,1.293932 -1.49468,3.027217 -0.217207,1.508494 -0.205341,1.865125 0.08029,2.413063 0.184338,0.353629 0.478382,1.018322 0.653431,1.477094 0.175049,0.458773 0.413612,0.834132 0.530139,0.834132 0.116528,0 0.947021,-0.499317 1.845541,-1.109592 z M 69.010556,46.194109 69.427828,45.69363 68.934984,46.117366 c -0.271065,0.233055 -0.492844,0.458271 -0.492844,0.500479 0,0.178005 0.176283,0.04659 0.568416,-0.423736 z M 54.624253,41.930856 c -0.0502,-0.05093 -0.584112,-0.290201 -1.186477,-0.53172 -0.602365,-0.24152 -2.968016,-1.344568 -5.257007,-2.45122 -5.47935,-2.649091 -6.85594,-3.019056 -11.28065,-3.031717 -2.19487,-0.0063 -3.82105,0.09907 -4.59988,0.298002 -2.78193,0.710573 -4.94723,2.106651 -6.38811,4.118751 -0.64901,0.906301 -0.83273,1.474458 -0.34742,1.074388 0.51761,-0.426702 3.84017,-1.362776 5.75614,-1.621693 2.34567,-0.316987 4.15038,-0.133575 5.9785,0.607596 0.98179,0.398048 1.59674,0.521128 2.11265,0.422843 0.97396,-0.185547 6.65284,0.213662 10.849671,0.762702 3.344196,0.437496 4.542071,0.534167 4.362583,0.352068 z"
       id="path10" /><path
       style="fill:#7d7d7d"
       d="m 94.478606,109.56441 c 1.055758,-1.14122 0.798058,-2.74261 -0.738927,-4.59182 -0.457574,-0.55053 -1.08687,-1.55148 -1.398435,-2.22435 -0.545332,-1.17772 -0.565631,-1.36873 -0.54368,-5.116008 0.02461,-4.20058 0.202539,-6.365377 1.192643,-14.510104 0.352957,-2.903475 0.64174,-5.464875 0.64174,-5.692 0,-0.414296 -1.030861,-1.064623 -1.287796,-0.812417 -0.07479,0.07341 -0.480967,0.994422 -0.902622,2.046693 -0.421656,1.052272 -0.932989,2.017485 -1.136296,2.14492 -0.25739,0.161333 -1.484048,0.151844 -4.039143,-0.03125 -2.018221,-0.14462 -3.709253,-0.222569 -3.757849,-0.17322 -0.185718,0.188594 -0.06805,13.117748 0.157998,17.361028 0.385604,7.238298 0.305601,6.863538 1.779863,8.337568 2.109886,2.10957 5.738152,3.78515 8.196266,3.78515 1.136245,0 1.428475,-0.0834 1.836238,-0.52419 z m -53.420327,-4.87787 c 1.29888,-0.66737 1.0328,-3.07591 -0.58659,-5.309772 -1.53398,-2.116055 -2.03362,-3.374471 -2.03614,-5.128328 -0.004,-2.665935 0.37023,-3.356731 5.15347,-9.517445 1.4241,-1.834216 3.60607,-5.675038 3.60607,-6.347611 0,-0.124977 -0.78122,-0.352058 -1.73603,-0.504625 -1.49642,-0.239108 -6.45692,-1.515381 -7.47786,-1.923957 -0.26707,-0.10688 -0.49526,0.269575 -1.03401,1.705911 -0.77321,2.061416 -2.43812,4.783948 -5.10343,8.345375 l -1.78825,2.389477 0.14333,1.745245 c 0.18361,2.235733 1.12819,7.924666 1.67878,10.1108 0.78168,3.10371 1.5298,4.00333 3.72704,4.48186 1.4996,0.32659 4.78162,0.29835 5.45362,-0.0469 z M 12.627549,89.917489 c -0.15812,-0.06426 -0.34704,-0.05635 -0.41983,0.01756 -0.0728,0.07391 0.0566,0.126485 0.28749,0.116827 0.25518,-0.01067 0.30708,-0.06338 0.13234,-0.134387 z m -2.8475402,0 c -0.15812,-0.06426 -0.34705,-0.05635 -0.41983,0.01756 -0.0728,0.07391 0.0566,0.126485 0.28749,0.116827 0.25517,-0.01067 0.30708,-0.06338 0.13234,-0.134387 z m 10.4094402,-3.43934 c 0.39765,-0.488366 0.93987,-5.200927 0.93813,-8.153557 -0.001,-1.792681 -0.13216,-3.155808 -0.42141,-4.381701 -0.63531,-2.692542 -1.09252,-5.555043 -1.25032,-7.82794 -0.13656,-1.966994 -0.17502,-2.085234 -1.01308,-3.114092 -1.32064,-1.621316 -2.14788,-2.892109 -3.15709,-4.849877 l -0.9168,-1.778496 -0.24963,0.666321 c -1.00734,2.688923 -1.82901,7.368372 -2.40642,13.704812 -0.24596,2.699011 -0.54187,5.323754 -0.65758,5.832763 -0.39319,1.729537 -0.31355,1.882256 0.54226,1.039918 0.41985,-0.413239 0.80503,-0.708138 0.85596,-0.655331 0.0509,0.05281 0.19987,0.687862 0.331,1.411231 0.13112,0.72337 0.27173,1.349057 0.31246,1.390418 0.0407,0.04136 1.04693,-0.221416 2.236,-0.583946 1.18907,-0.362531 2.17985,-0.637883 2.20174,-0.611895 0.0219,0.02599 -0.0598,1.127519 -0.18149,2.447847 -0.12171,1.320327 -0.1737,2.44892 -0.11553,2.507985 0.0582,0.05907 0.57143,-0.09532 1.1406,-0.34307 0.56917,-0.247753 1.12155,-0.45046 1.22751,-0.45046 0.10596,0 0.221,0.916786 0.25564,2.037303 0.0504,1.631065 0.11584,1.972391 0.32805,1.711767 z M 7.1383788,84.119298 c 0.27246,-0.352794 0.26471,-0.360662 -0.0827,-0.08398 -0.21083,0.167904 -0.38333,0.343072 -0.38333,0.389262 0,0.183072 0.17988,0.06524 0.46603,-0.30528 z m 1.09521,-1.112176 c 0.27246,-0.352794 0.26471,-0.360662 -0.0827,-0.08398 -0.36487,0.290582 -0.48091,0.473243 -0.30063,0.473243 0.0455,0 0.21798,-0.175168 0.38333,-0.389263 z M 88.265423,63.244496 C 85.7651,61.951987 83.97947,59.466734 82.769394,55.595082 c -1.161073,-3.714864 -1.188115,-3.774831 -1.861847,-4.128628 -0.709746,-0.37271 -1.694858,-0.415612 -2.170443,-0.09452 -0.275347,0.185899 -0.216831,0.320448 0.361288,0.830726 1.752693,1.547019 3.143381,4.421086 3.143381,6.496273 0,1.00768 0.823218,2.153843 2.424564,3.375711 1.191675,0.909279 3.172354,1.750666 4.100147,1.741731 0.518551,-0.005 0.454798,-0.07776 -0.501061,-0.571875 z M 73.833333,50.537045 c 0.936819,-0.08699 1.399102,-0.625098 1.399102,-1.628572 0,-0.581896 -0.326696,-0.548164 -1.684915,0.173971 -1.00074,0.532072 -1.227826,0.576342 -1.810567,0.352975 -0.617435,-0.236666 -0.666312,-0.21929 -0.666312,0.236878 0,0.977765 0.353636,1.088457 2.762692,0.864748 z m -2.642618,-3.122949 c 0.453366,-0.322695 1.194177,-1.575633 1.194177,-2.01972 0,-0.719848 -0.368368,-0.765849 -1.2517,-0.156311 -0.451754,0.311731 -1.029634,0.566783 -1.284179,0.566783 -0.254545,0 -0.649725,0.209739 -0.878178,0.466087 -0.409349,0.459333 -0.407902,0.472228 0.09984,0.889741 0.514215,0.422836 1.685343,0.562828 2.12004,0.25342 z M 29.295369,43.697957 c 1.45307,-1.005447 1.45336,-1.018146 0.0143,-0.637238 -1.77879,0.470837 -1.93354,0.57839 -1.4533,1.010029 0.36137,0.324798 0.47241,0.296032 1.43899,-0.372791 z m 72.057801,-2.489126 c -0.15059,-0.06171 -0.39701,-0.06171 -0.5476,0 -0.1506,0.06171 -0.0274,0.112193 0.2738,0.112193 0.30118,0 0.42439,-0.05049 0.2738,-0.112193 z M 82.426229,37.574748 c 0,-0.305848 -0.04972,-0.430968 -0.110481,-0.278044 -0.06076,0.152924 -0.06076,0.403164 0,0.556088 0.06077,0.152924 0.110481,0.0278 0.110481,-0.278044 z m 4.634464,-2.085898 c 0,-0.04619 -0.172496,-0.221357 -0.383323,-0.389261 -0.347413,-0.276681 -0.35516,-0.268813 -0.0827,0.08398 0.28615,0.370521 0.466024,0.488352 0.466024,0.30528 z m -3.695771,-0.30528 c 0.27246,-0.352794 0.264712,-0.360662 -0.0827,-0.08398 -0.210828,0.167904 -0.383323,0.343071 -0.383323,0.389261 0,0.183072 0.179874,0.06524 0.466023,-0.305281 z m 18.316818,-0.431374 c -0.21083,-0.05595 -0.55582,-0.05595 -0.76665,0 -0.21083,0.05595 -0.0383,0.101725 0.38332,0.101725 0.42166,0 0.59415,-0.04578 0.38333,-0.101725 z"
       id="path9" /><path
       style="fill:#575757"
       d="m 13.134089,89.860292 c 2.3966,-0.395858 4.41921,-1.204059 5.96888,-2.385059 l 0.71189,-0.542527 v -2.101814 c 0,-1.155997 -0.0904,-2.101813 -0.20088,-2.101813 -0.11049,0 -0.66656,0.202707 -1.23573,0.45046 -0.56917,0.247753 -1.08244,0.402135 -1.1406,0.34307 -0.0582,-0.05907 -0.006,-1.187658 0.11553,-2.507985 0.12171,-1.320328 0.20338,-2.421858 0.18149,-2.447847 -0.0219,-0.02599 -1.01267,0.249364 -2.20174,0.611895 -1.18907,0.36253 -2.19736,0.623187 -2.24064,0.579238 -0.0433,-0.04395 -0.18532,-0.694662 -0.31565,-1.446027 -0.13033,-0.751365 -0.30036,-1.363409 -0.37784,-1.360099 -0.42297,0.01807 -1.74947,1.618273 -2.08826,2.51913 -0.6845702,1.820302 -2.0942102,3.683638 -4.0921302,5.409205 -2.58835,2.23552 -2.7809,2.811092 -1.24363,3.717619 1.79969,1.061279 5.7123902,1.666723 8.1593102,1.262554 z M 89.962997,57.001725 c -0.150592,-0.06171 -0.397014,-0.06171 -0.547605,0 -0.150591,0.06171 -0.02738,0.112193 0.273802,0.112193 0.301183,0 0.424394,-0.05049 0.273803,-0.112193 z m 9.583079,-16.396867 c 0,-0.04619 -0.172496,-0.221357 -0.383324,-0.389261 -0.347412,-0.276681 -0.35516,-0.268813 -0.0827,0.08398 0.28615,0.370521 0.466024,0.488352 0.466024,0.305281 z M 87.66258,37.908401 c -0.0024,-0.489358 -0.04729,-0.663358 -0.09968,-0.386668 -0.05239,0.276689 -0.0504,0.677073 0.0044,0.88974 0.05482,0.212667 0.09769,-0.01371 0.09526,-0.503072 z m -2.532193,-3.377258 c -0.158121,-0.06426 -0.347044,-0.05635 -0.41983,0.01756 -0.07279,0.07391 0.05659,0.126486 0.287492,0.116828 0.255171,-0.01067 0.307075,-0.06338 0.132338,-0.134388 z"
       id="path8" /><path
       style="fill:#2b2b2b"
       d="m 96.260336,58.233754 c 0.774109,-0.313461 1.533405,-1.090065 1.533405,-1.568359 0,-0.525918 -0.06521,-0.5164 -1.236133,0.180439 -0.908143,0.540453 -1.055292,0.565326 -1.872869,0.31658 -0.940337,-0.286097 -2.035502,-1.215407 -1.830083,-1.552931 0.06735,-0.110669 0.52626,-0.270494 1.019792,-0.355167 2.582427,-0.443058 3.223428,-3.417027 1.028638,-4.772436 -1.608653,-0.993435 -4.456549,-0.740749 -5.682499,0.504193 -0.609606,0.61905 -0.664685,0.788661 -0.572496,1.762952 0.126702,1.339042 0.732436,2.043923 2.044806,2.3795 1.081333,0.276501 1.202634,0.608078 0.47483,1.297946 -0.778019,0.737465 -1.526894,0.820055 -2.691641,0.29685 -1.199621,-0.538869 -1.634435,-0.582724 -1.634435,-0.164844 0,0.670138 1.835397,1.707227 3.004789,1.697853 0.335171,-0.0027 1.027436,-0.197584 1.538369,-0.433105 l 0.928968,-0.428218 0.932887,0.541642 c 0.976415,0.566914 2.07894,0.675608 3.013672,0.297105 z M 102.52477,40.71174 c 1.23478,-0.764623 1.74202,-2.898513 1.04404,-4.392176 -0.43485,-0.930592 -1.28801,-1.414038 -2.49541,-1.414038 -1.133769,0 -2.03481,0.83396 -2.403563,2.224621 -0.351677,1.326262 -0.104613,2.384698 0.762089,3.264827 0.861604,0.87495 2.002704,0.99182 3.092844,0.316766 z M 86.099512,40.69327 c 0.924153,-0.379185 1.399264,-1.300943 1.399264,-2.714698 0,-2.1657 -0.863576,-3.295484 -2.51898,-3.295484 -1.081668,0 -1.807733,0.481436 -2.213556,1.467755 -1.082831,2.631727 1.016733,5.492914 3.333272,4.542427 z"
       id="path7" /></g></svg>
